# xmcd
#
# Track frame offsets: 
#        150
#        20328
#        32196
#        54112
#        82115
#        98948
#        119762
#        141946
#        161941
#        177742
#        190609
#        203894
#
# Disc length: 2988 seconds
#
# Revision: 0
# Processed by: cddbd v1.5.2PL0 Copyright (c) Steve Scherf et al.
# Submitted via: ExactAudioCopy v1.0b3
#
DISCID=ad0baa0c
DTITLE=Irvin Blais - Mon père
DYEAR=2014
DGENRE=Country
TTITLE0=Ils parlent de nous
TTITLE1=La foère au camp
TTITLE2=Maman
TTITLE3=Mon Père
TTITLE4=Tu m'as menti
TTITLE5=Toi chère
TTITLE6=Acadie Gaspésie (feat Paul Dwayne)
TTITLE7=Beach Party
TTITLE8=L'Outaouais
TTITLE9=Ma jolie
TTITLE10=Dis moi Pourquoi
TTITLE11=Pour toi mon amour
EXTD=
EXTT0=
EXTT1=
EXTT2=
EXTT3=
EXTT4=
EXTT5=
EXTT6=
EXTT7=
EXTT8=
EXTT9=
EXTT10=
EXTT11=
PLAYORDER=
